# xmcd CD database file
#
# Track frame offsets:
#	150
#	10908
#	25339
#	50247
#	63901
#	74905
#	99485
#	131502
#	148225
#	165424
#	191666
#	203157
#	224596
#	251071
#	269147
#
# Disc length: 3804 seconds
#
# Revision: 0
# Processed by: cddbd v1.5.2PL0 Copyright (c) Steve Scherf et al.
# Submitted via: CDex 1.51
#
DISCID=f60eda0f
DTITLE=JazzAscona - Body and Soul 2011
DYEAR=2011
DGENRE=Jazz
TTITLE0=Have you met Miss Jones, Pepe Lienhard Big Band
TTITLE1=I've got my love to keep me warm, Cecile McLorin and Jean-François.Bonnel Band
TTITLE2=Sardust-Embraceable you, Niccolas Dary and The Grasso Brothers
TTITLE3=Pink champagne, Drew Davies Rhythm Combo
TTITLE4=A tisket a tasket, Oriental Jazzband
TTITLE5=John's idea, Michel Pastre Big Band
TTITLE6=Drago Blues, Sandro Schneebeli
TTITLE7=Come Back, Chriestian Willsohn and Boris Van Der Lek
TTITLE8=China boy, color Swing Trie feat. Christian Meyer
TTITLE9=The days of wine and roses, Twobones
TTITLE10=Moonglow, Les amis du jazz de Courtailod
TTITLE11=Forbidden Fruit, Alexia Gardner and Offbeat Trio
TTITLE12=There'll be some changes made, Buddha's Gamblers
TTITLE13=Move, Sinatra Tribute Band and Max Neissendorfer
TTITLE14=Big boy, Eana Gillespie and Joachim Palden
EXTD=YEAR: 2011
EXTT0=
EXTT1=
EXTT2=
EXTT3=
EXTT4=
EXTT5=
EXTT6=
EXTT7=
EXTT8=
EXTT9=
EXTT10=
EXTT11=
EXTT12=
EXTT13=
EXTT14=
PLAYORDER=
